<?xml version="1.0" encoding="utf-8"?>
<!-- Generator: Adobe Illustrator 17.1.0, SVG Export Plug-In . SVG Version: 6.00 Build 0)  -->
<!DOCTYPE svg PUBLIC "-//W3C//DTD SVG 1.1//EN" "http://www.w3.org/Graphics/SVG/1.1/DTD/svg11.dtd">
<svg version="1.1" id="Layer_1" xmlns="http://www.w3.org/2000/svg" xmlns:xlink="http://www.w3.org/1999/xlink" x="0px" y="0px"
	 viewBox="0 0 332 89" enable-background="new 0 0 332 89" xml:space="preserve">
<g>
	<g>
		<g>
			<path fill="#FFFFFF" d="M25.4,28.1c0-1,0.8-1.7,1.7-1.7h3.3c0.8,0,1.3,0.4,1.5,1l1.2,3.3c1.5-1.7,5.6-5.2,11.8-5.2
				c5,0,8.5,1.9,11.5,5.5c1.5-1.6,6.1-5.5,12.4-5.5c11.3,0,15.4,8.4,15.4,17.6V60c0,0.9-0.7,1.7-1.7,1.7h-7.1c-1,0-1.7-0.8-1.7-1.7
				V42.6c0-4.6-2.2-7.5-6.6-7.5c-5.1,0-7.4,3.7-7.4,3.7s0.1,1.8,0.1,3.3V60c0,0.9-0.8,1.7-1.7,1.7h-6.6c-1,0-1.7-0.8-1.7-1.7V42.6
				c0-4.6-2-7.5-6.5-7.5c-4.4,0-6.5,3.2-7.4,5.6V60c0,0.9-0.8,1.7-1.7,1.7h-7.1c-0.9,0-1.7-0.8-1.7-1.7V28.1z"/>
			<path fill="#FFFFFF" d="M93.2,1.7C93.2,0.8,94,0,94.9,0h7.5c0.9,0,1.7,0.8,1.7,1.7v26.8c1.8-1.3,5.2-2.9,9.3-2.9
				c11.2,0,15.8,8.6,15.8,17.5V60c0,0.9-0.8,1.7-1.7,1.7h-7.1c-1,0-1.7-0.8-1.7-1.7V43c0-4.8-2.7-7.9-7-7.9c-4.1,0-6.8,2.6-7.7,6.3
				V60c0,1-0.5,1.7-1.9,1.7h-7.3c-0.9,0-1.7-0.8-1.7-1.7V1.7z"/>
			<path fill="#FFFFFF" d="M137.5,28.1c0-1,0.8-1.7,1.7-1.7h7.2c0.9,0,1.7,0.7,1.7,1.7v17.4c0,4.7,2.4,7.6,6.4,7.6
				c3.7,0,6.5-3.4,7.1-6.6V28.1c0-1.3,0.5-1.7,1.9-1.7h6.7c0.9,0,1.7,0.7,1.7,1.7V60c0,0.9-0.8,1.7-1.7,1.7H167
				c-0.9,0-1.4-0.6-1.7-1.3l-1.1-2.9c-1.6,1.4-4.8,5.1-11.8,5.1c-10.9,0-14.9-8.4-14.9-17.4V28.1z"/>
			<path fill="#FFFFFF" d="M181.6,28.1c0-1,0.8-1.7,1.7-1.7h3.3c0.8,0,1.2,0.4,1.5,1.1l1.2,3.3c1.3-1.4,5.6-5.2,12.4-5.2
				c11.2,0,15.7,8.4,15.7,17.5V60c0,0.9-0.8,1.7-1.7,1.7h-7.2c-1,0-1.7-0.8-1.7-1.7V42.6c0-4.6-2.4-7.5-6.6-7.5
				c-4.6,0-7.4,3.2-8.3,5.6V60c0,1.2-0.5,1.7-2.2,1.7h-6.5c-0.9,0-1.7-0.8-1.7-1.7V28.1z"/>
			<path fill="#FFFFFF" d="M229.4,49.2c0,0-2.6-3-2.6-8.3c0-8.2,6.6-15.3,15.3-15.3h16c1,0,1.7,0.7,1.7,1.7v2.9c0,0.6-0.4,1.3-1,1.5
				l-4.9,1.6c0,0,3.5,2.7,3.5,9c0,7-5.8,13.8-15.1,13.8c-3.3,0-5.6-0.7-7.1-0.7c-1.2,0-3.3,1.2-3.3,3.3c0,1.9,1.6,3,3.5,3h11.3
				c8,0,14.5,4.6,14.5,12.3c0,8.1-6.5,15-19.3,15c-13,0-18-6.4-18-12.1c0-5.3,4.4-7.8,5.3-8.4v-0.3c-1.5-0.4-6.6-2.8-6.6-9.3
				C222.8,52.2,229.4,49.2,229.4,49.2z M242,80.2c4.9,0,8.2-2.2,8.2-5.6c0-1.6-1.2-4.3-6.4-4.3c-1.9,0-3.9,0.1-5.7,0.4
				c-1.1,0.4-3.8,1.6-3.8,4.3C234.2,78.1,237.2,80.2,242,80.2z M242.3,47.7c3.6,0,6.1-2.6,6.1-6.3s-2.5-6.3-6.1-6.3
				c-3.5,0-6.2,2.6-6.2,6.3S238.8,47.7,242.3,47.7z"/>
			<path fill="#FFFFFF" d="M266.3,28.1c0-1,0.8-1.7,1.7-1.7h3.3c0.8,0,1.3,0.4,1.6,1.1l1.2,3.4c1.2-1.8,4.5-5.5,10-5.5
				c4.1,0,7.8,1.3,6.8,3.5l-3.3,5.7c-0.4,0.8-1.3,1.1-2,0.8c-0.3-0.1-1.6-0.5-2.6-0.5c-3.5,0-5.6,2.4-6.3,3.6V60
				c0,1.2-0.8,1.7-2,1.7H268c-0.9,0-1.7-0.8-1.7-1.7V28.1z"/>
			<path fill="#FFFFFF" d="M292.4,28.7c-0.5-1.1,0.2-2.3,1.5-2.3h7.9c0.8,0,1.2,0.4,1.5,1l8.9,19.9h0.1l8.8-19.9
				c0.4-0.9,1.1-1,2.1-1h7.1c1.4,0,2.1,1.1,1.5,2.3l-27,58.3c-0.3,0.5-0.8,1.1-1.5,1.1h-7.6c-1.3,0-2.1-1.1-1.5-2.4l12.5-26.5
				L292.4,28.7z"/>
		</g>
		<path fill="#FFFFFF" d="M20.8,14c0-7.7-4.7-14-10.4-14C4.7,0,0,6.2,0,14c0,6.2,3,11.4,7.2,13.2L5.7,59.5c0,1.2,1,2.2,2.2,2.2h5
			c1.2,0,2.2-1,2.2-2.2l-1.7-32.2C17.7,25.5,20.8,20.2,20.8,14z"/>
	</g>
</g>
</svg>
